<svg xmlns="http://www.w3.org/2000/svg" id="Layer_1" data-name="Layer 1" viewBox="0 0 360 360"><defs><style>.cls-1{fill:#0e2050}.cls-2{fill:#fff}</style></defs><path d="M360 360H0V0h360v360z" class="cls-1"/><path d="M71.3 299.5c0-12.6-6.1-21.4-16.4-21.4-11.2 0-16.4 10.6-16.4 21.4 0 12.5 6.1 21.3 16.4 21.3 11.1 0 16.3-10.5 16.3-21.3Zm7.6-.3a23.5 23.5 0 0 1-24 23.9c-13.6 0-24-10.2-24-23.4a23.5 23.5 0 0 1 24-23.8c13.6 0 24 10.1 24 23.3ZM217.7 299.5c0-12.6-6-21.4-16.3-21.4-11.2 0-16.4 10.6-16.4 21.4 0 12.5 6 21.3 16.3 21.3 11.2 0 16.4-10.5 16.4-21.3Zm7.6-.3a23.5 23.5 0 0 1-24 23.9c-13.6 0-24-10.2-24-23.4a23.5 23.5 0 0 1 24-23.8c13.6 0 24 10.1 24 23.3ZM254.4 307c-2.7-3.7-3.7-5.1-7-5.1h-3.6v15.5c0 1.2.5 1.9 2 2.1l5.1 1.2v1.6h-20.4v-1.6l4.7-1.2c1.4-.4 2-.9 2-2.1v-35.8c0-1.3-.6-1.8-2-2.2l-4.7-1.1v-1.7h20a27.6 27.6 0 0 1 9.5 1.3 12 12 0 0 1 7.7 11c0 5.6-4.2 10.3-11.2 12v.2c1.4.6 2.2 1.5 7.2 8l6.2 8.2a5.3 5.3 0 0 0 3.4 2.3l4.6 1v1.7H267c-1.3 0-1.9-.4-3-2l-9.5-13.3Zm-10.5-7.3h5.7c8.6 0 10.5-5.4 10.5-10.7a9.7 9.7 0 0 0-5.8-9.3c-2.2-1-4.2-1-7-1h-3.5v21ZM165 292.2h1.8v15.3H165l-1.1-4.6a2.7 2.7 0 0 0-3-2.3h-11v16.8c0 1.2.5 1.9 2 2.1l5.1 1.2v1.6h-20.4v-1.6l4.7-1.2c1.4-.4 1.9-.9 1.9-2.1v-35.8c0-1.3-.5-1.8-2-2.2l-4.6-1.1v-1.7H171V288h-1.9l-2.1-6.8c-.5-1.8-1.3-2.4-2.8-2.4h-14.4v19.6h11a2.7 2.7 0 0 0 3-2.2l1.1-4ZM294.9 278.8V318c0 1.7.4 2 2 2h5.6c5.3 0 9.2-.7 12-2.7 4.7-3.5 6.9-9.7 6.9-17.6s-2.2-15.3-8.5-19c-2.7-1.5-6.1-2-11.4-2Zm-13.3 43.5v-1.6l4.6-1.2c1.5-.4 2-.9 2-2.1v-35.8c0-1.3-.5-1.8-2-2.2l-4.6-1.1v-1.7H303c5.8 0 10 .8 13.4 2.3 8.7 4 12.6 12.4 12.6 20.8 0 8.1-3 15.7-10.8 19.8a32 32 0 0 1-15 2.8ZM96.8 320.7v1.6H80.7v-1.6l4-1a6.4 6.4 0 0 0 3.5-2l14-17.6-14-18.5a5.8 5.8 0 0 0-3.4-2.3l-3.8-1v-1.6h20v1.6l-4.3 1c-1.5.2-1.1.8-.4 1.8l10.3 14.7h.3l10.5-14.7c.8-1 1-1.4-.4-1.8l-4-1v-1.6h16v1.6l-4 1a6.4 6.4 0 0 0-3.5 2L108.3 298l14.7 19.4a5.8 5.8 0 0 0 3.4 2.3l3.8 1v1.6h-20v-1.6l4.3-1c1.6-.2 1.3-.7.5-1.7L104 302.2h-.3L92.3 318c-.7 1-1 1.3.4 1.7l4 1ZM48.7 255.1a7.9 7.9 0 0 1-5.8 2.1 8.2 8.2 0 0 1-5.9-2.1c-2-2-1.9-4.5-1.9-7.2v-12.7h2.6v13.6c0 1.7 0 3.4 1.3 4.8a5.6 5.6 0 0 0 4 1.4 5.2 5.2 0 0 0 3.7-1.4c1.5-1.4 1.4-3 1.4-7v-11.4h2.5V246c0 4 .2 7-1.9 9.2ZM71.7 256.8l-10.4-17.7v17.7h-2.4v-21.6h2.7L72.1 253l-.1-17.8h2.4v21.6h-2.7zM83.4 256.8v-21.6H86v21.6h-2.6zM102.2 256.8h-3l-7.4-21.6h2.7l6.3 19.1 6.5-19.1h2.5l-7.6 21.6zM115.7 256.8v-21.6h11.8v2.1h-9.2v7.2h8.6v2.1h-8.6v8h9.4v2.2h-12zM146.6 256.8l-2.5-5.6c-1.6-3.5-2.3-3.8-5.4-3.8h-1.5v9.4h-2.6v-21.6h4.7c2.9 0 5 0 6.8 1.7a5.9 5.9 0 0 1 1.6 4.3 5.2 5.2 0 0 1-1.3 3.7 5.8 5.8 0 0 1-3.5 1.7 2.9 2.9 0 0 1 1.8.9 9.7 9.7 0 0 1 1.7 2.9l2.9 6.4Zm-2.4-18.4c-1.3-1.2-2.9-1.2-4.6-1.2h-2.4v8.1h.8c2.2 0 4.5.1 6-1.3a4 4 0 0 0 1.1-2.9 4 4 0 0 0-1-2.7ZM174.5 256.8v-21.6h2.6v21.6h-2.6zM192 237.3v19.5h-2.6v-19.5H183v-2.1h15.4v2.1H192zM210.9 248.3v8.5h-2.6v-8.5l-6.9-13.1h3l5.4 10.1 5.1-10.1h2.9l-6.9 13.1zM242 257.2c-5.6 0-9.7-4.6-9.7-11.1 0-6.7 4-11.3 9.9-11.3 5.7 0 9.7 4.6 9.7 11 0 6.8-4 11.4-9.9 11.4Zm0-20.2c-4.2 0-7 3.6-7 9s3 9 7.1 9c4.6 0 7-3.9 7-9.2s-3-8.8-7.1-8.8ZM261.6 237.3v7.2h8.4v2.1h-8.4v10.2H259v-21.6h11.5v2.1h-8.9zM154.5 240.4c0-3.3 2.7-5.7 6.6-5.7a8 8 0 0 1 6 2.3l-1.3 1.5a7.8 7.8 0 0 0-4.6-1.6c-2.8 0-4.3 1.4-4.3 3.4a2.8 2.8 0 0 0 1 2.2 12.5 12.5 0 0 0 3 1.7 15.2 15.2 0 0 1 4.8 2.8 5.5 5.5 0 0 1 1.6 3.9c0 3.6-2.5 6.3-7 6.3a10 10 0 0 1-6.5-2.3l1.2-1.7a10.4 10.4 0 0 0 5.2 1.8c3.3 0 4.5-1.7 4.5-3.9a3.4 3.4 0 0 0-1.1-2.4 14.7 14.7 0 0 0-4-2.3 12.1 12.1 0 0 1-3.9-2.4 5 5 0 0 1-1.3-3.6ZM254 88.7c0-2.7-1-4.9-3-6a10 10 0 0 0-5-1h-15.2v30.5h16.5c3.8 0 6 .9 6.3 4.3h.3V88.7ZM256 88.7c0-2.7 1-4.9 3-6a10 10 0 0 1 5-1h15.2v30.5h-16.6c-3.8 0-6 .9-6.2 4.3h-.4V88.7Z" class="cls-2"/><path d="M282.4 84v32.3H259l-.3.6c-.4 1-1.1 2-3.7 2s-3.2-.9-3.7-2l-.2-.6h-23.4V83.9h-2.2v1l-2-.6a2 2 0 1 0-1.8 2.5 2 2 0 0 0 1.2-.5l2.7.8v2.6l-2-.3a2 2 0 1 0-1.8 2.7 1.9 1.9 0 0 0 1.4-.6l2.3.4v2.6h-2a1.9 1.9 0 0 0-1.7-1 2 2 0 1 0 1.6 3l2.1.2v2.8l-2 .1a2 2 0 1 0 0 2.1h2v2.6l-2.3.4a1.9 1.9 0 0 0-1.4-.6 2 2 0 1 0 1.7 2.7l2-.3v2.6l-2.5.8a1.9 1.9 0 0 0-1.2-.5 2 2 0 1 0 1.8 2.5l2-.6v2.5l-2.9 1.2a1.8 1.8 0 0 0-1-.3 2 2 0 1 0 1.9 2.2l2-.8v2.3h24.2c1 1.7 2.7 2.6 5.2 2.6s4.3-.9 5.3-2.6h24.3V83.9ZM239 73.2c-4.8 0-8.8.7-8.8 1.6s4 1.7 8.9 1.7 8.9-.7 8.9-1.7-4-1.6-9-1.6ZM251.3 62.5l-5.1 3.6v.4l1.2.5c.2.2.2.3.1.5l-3.2 2.7h-.3l-2.3-3.4c-.1-.2 0-.4.2-.4l1.5-.3v-.4l-4-5.6h-.6l-4 5.6v.4l1.5.3c.3 0 .4.2.2.4l-2.3 3.4h-.3l-3-2.7c-.1-.2 0-.3.2-.5l1.2-.5V66l-5.4-3.6-.4.2 3.1 9.6c1.6-.8 5.3-1.3 9.5-1.3s8 .5 9.5 1.3l3.2-9.6-.5-.2ZM255 137.2c-4.9 0-8.9.8-8.9 1.7s4 1.7 8.9 1.7 8.9-.7 8.9-1.7-4-1.7-8.9-1.7ZM267.2 126.6l-5.1 3.6v.4l1.2.5c.2.1.2.3.1.5l-3.2 2.7h-.3l-2.3-3.4c-.2-.2-.1-.4.2-.5l1.5-.2v-.4l-4-5.6h-.7l-4 5.6v.4l1.6.2c.3 0 .3.3.2.5l-2.3 3.4h-.3l-3-2.7c-.2-.2-.2-.4 0-.5l1.3-.5v-.4l-5.3-3.6-.5.2 3.2 9.5c1.6-.7 5.2-1.2 9.5-1.2s7.9.5 9.5 1.2l3.1-9.5-.4-.2ZM270.8 73.2c-4.9 0-8.8.7-8.8 1.6s4 1.7 8.8 1.7 8.9-.7 8.9-1.7-4-1.6-8.9-1.6ZM283 62.5l-5.1 3.6v.4l1.2.5c.2.2.2.3.1.5l-3.2 2.7h-.3l-2.3-3.4c-.1-.2 0-.4.2-.4l1.5-.3v-.4l-4-5.6h-.6l-4 5.6v.4l1.5.3c.3 0 .3.2.2.4l-2.2 3.4h-.3l-3-2.8c-.1-.1-.1-.3.1-.4l1.2-.5V66l-5.3-3.6-.5.2 3.2 9.5c1.5-.7 5.2-1.2 9.5-1.2s7.9.5 9.5 1.2l3-9.5-.3-.2Z" class="cls-2"/><path d="M234.4 89.8c0 .6.2.8.5.8.6 0 1.2-.7 1.2-1.9 0-1.4-.8-1.8-1.3-1.8a.6.6 0 0 0-.3 0s0 .1 0 .3v2.6Zm.4-3.3a2.7 2.7 0 0 1 2 .6 2 2 0 0 1 .5 1.4c0 1.7-1.2 2.4-2.8 2.4h-1.7v-.3c.5 0 .5 0 .5-.8v-2.2c0-.7 0-.8-.5-.8v-.3ZM239.2 88.5c0 1.3.4 2.2 1 2.2s1-.6 1-1.8-.5-2.1-1.1-2.1-1 .6-1 1.8Zm3.2.2a2.2 2.2 0 0 1-2.3 2.3 2.2 2.2 0 0 1-2.2-2.2 2.3 2.3 0 0 1 2.3-2.4 2.1 2.1 0 0 1 2.2 2.2ZM248.4 86.5v.3c-.5 0-.6 0-.5.8v2.2c0 .8 0 .8.5.9v.2h-2v-.2c.4-.1.5-.1.4-.9v-2.3l-1.3 3.3h-.3l-1.3-3.1v1.5a7.2 7.2 0 0 0 0 1.1c0 .2.2.3.7.3v.3h-1.7v-.3c.3 0 .5 0 .5-.3l.1-1.2v-1.3c.1-.9 0-1-.5-1v-.3h1.6l1.2 2.7 1-2.7ZM250.6 89.8c0 .8 0 .8.5.9v.2h-2.2v-.3c.5 0 .5 0 .5-.8v-2.2c0-.7 0-.8-.5-.8v-.3h2.2v.3c-.5 0-.5 0-.5.8v2.2ZM239.7 99h-.6l-2.5-3.1V97a10.3 10.3 0 0 0 0 1.3c0 .2.3.3.7.3v.3h-1.7v-.3c.3 0 .5 0 .5-.3V95c0-.2-.3-.2-.6-.2v-.3h1.5l2.3 2.8v-.9l-.1-1.3c-.1-.3-.2-.3-.7-.3v-.3h1.8v.3c-.4 0-.6 0-.6.3a10.3 10.3 0 0 0 0 1.3V99ZM242.4 99l-1.3-3.5c-.3-.7-.4-.6-.7-.6v-.3h2.2v.3h-.2c-.3 0-.3 0-.2.3l.9 2.4.7-2.2c.1-.3.1-.5-.2-.5h-.2v-.3h1.7v.3c-.4 0-.5 0-.8.7L243 99ZM245.5 97.6c.1.4.5 1.2 1.2 1.2a.6.6 0 0 0 .6-.7c0-.4-.3-.6-.7-.8-.6-.3-1.2-.6-1.2-1.3s.5-1.4 1.6-1.4a2.6 2.6 0 0 1 .6 0l.3.2.2 1h-.3c-.2-.5-.4-1-1-1a.6.6 0 0 0-.5.6c0 .3.2.5.7.7l.1.1c.6.3 1.2.6 1.2 1.4a1.5 1.5 0 0 1-1.7 1.5 2.5 2.5 0 0 1-.8-.1l-.4-.2-.2-1.1.3-.1ZM236.7 106c0 .7 0 .8.5.8v.3H235v-.3c.5 0 .5 0 .5-.8v-2.2c0-.8 0-.8-.5-.8v-.3h2.2v.3c-.5 0-.5 0-.5.8v2.2ZM239.4 106.1l.1.6a1.2 1.2 0 0 0 .5 0 .8.8 0 0 0 .6-.2 1.7 1.7 0 0 0 .4-.6h.3l-.3 1.2h-3.3v-.3c.5 0 .5 0 .5-.8v-2.2c0-.8 0-.8-.5-.9v-.2h2.2v.3c-.5 0-.5 0-.5.8v2.3ZM243.1 106.1c0 .4 0 .5.2.6a1.2 1.2 0 0 0 .4 0 .8.8 0 0 0 .7-.2 1.9 1.9 0 0 0 .3-.6h.3l-.2 1.2h-3.4v-.3c.5 0 .6 0 .6-.8v-2.2c0-.8 0-.8-.5-.9v-.2h2.2v.3c-.5 0-.6 0-.6.8v2.3ZM246.4 107.2l-1.4-3.6c-.3-.6-.3-.6-.7-.6v-.3h2.2v.3h-.2c-.3 0-.3 0-.2.3l1 2.4.7-2.2c0-.3 0-.5-.2-.5h-.2v-.3h1.6v.3c-.4 0-.5 0-.8.7l-1.3 3.5ZM264.5 86.5v.3c-.5 0-.5 0-.5.8v2.2c0 .8 0 .8.6.9v.2h-2.2v-.2c.6-.1.6-.1.6-.9v-2.3l-1.3 3.3h-.4l-1.3-3.1v1.5a6.8 6.8 0 0 0 0 1.1c0 .3.1.3.6.3v.3h-1.7v-.3c.3 0 .4 0 .5-.3a9.1 9.1 0 0 0 0-1.2l.2-1.3c0-.9 0-1-.6-1v-.3h1.6l1.2 2.7 1-2.7ZM266.7 89.8c0 .8 0 .8.5.9v.2H265v-.3c.5 0 .5 0 .5-.8v-2.2c0-.7 0-.8-.5-.8v-.3h2.2v.3c-.5 0-.5 0-.5.8v2.2ZM271.7 91h-.6l-2.5-3.2V89a10.2 10.2 0 0 0 0 1.3c0 .2.3.3.7.3v.3h-1.6v-.3c.3 0 .4 0 .5-.3v-2.5l-.1-.8a.6.6 0 0 0-.5-.2v-.3h1.4l2.3 2.8v-.9l-.1-1.3c-.1-.3-.2-.3-.7-.3v-.3h1.8v.3c-.4 0-.6.1-.6.3a10.3 10.3 0 0 0 0 1.3V91ZM273.7 89.2h.8l-.4-1.3-.4 1.3Zm.8 1.5h.2c.3 0 .3-.1.2-.4l-.2-.7h-1.2l-.2.7c0 .3 0 .3.3.4h.2v.2h-1.6v-.2c.3 0 .4-.1.7-.7l1.3-3.5h.5l.4 1.2.9 2.3c.2.6.3.6.7.7v.2h-2.1v-.2ZM264.4 98c0 .7 0 .7.7.7v.3h-2.4v-.3c.5 0 .6 0 .6-.8V95h-.1c-.5 0-.7 0-.8.2a1.8 1.8 0 0 0-.2.7h-.3v-1.4h.3c0 .1.1.2.3.2h2.7c.2 0 .2 0 .3-.2h.2l.1 1.3h-.3a1.5 1.5 0 0 0-.3-.7 1 1 0 0 0-.6-.1h-.2v3ZM268 98c0 .7 0 .7.5.7v.3h-2.2v-.3c.5 0 .5 0 .5-.8v-2.2c0-.7 0-.8-.5-.8v-.3h2.2v.3c-.5 0-.5 0-.5.8v2.2ZM270.3 96.6c0 1.3.5 2.2 1.1 2.2s1-.6 1-1.8-.6-2.1-1.1-2.1-1 .6-1 1.7Zm3.3.2a2.2 2.2 0 0 1-2.3 2.3A2.2 2.2 0 0 1 269 97a2.3 2.3 0 0 1 2.3-2.4 2.1 2.1 0 0 1 2.2 2.3ZM266.4 102.7v.3c-.5 0-.5 0-.5.8l.1 2.2c0 .8 0 .8.5.8v.3h-2v-.3c.4 0 .4 0 .4-.8v-2.4l-1.3 3.4h-.3L262 104v1.5a8.9 8.9 0 0 0 0 1c0 .3.1.4.6.4v.3h-1.7v-.3c.3 0 .5 0 .5-.3a9.1 9.1 0 0 0 .1-1.2V104c.1-.8 0-.9-.5-1v-.2h1.6l1.2 2.7 1-2.7ZM267.5 103.8c0-.7 0-.8-.5-.8v-.3h3.2v1.1h-.3a1.4 1.4 0 0 0-.2-.6 1 1 0 0 0-.7-.1h-.1c-.3 0-.3 0-.3.2v1.3h.4c.6 0 .6 0 .7-.6h.3v1.6h-.3c-.1-.6-.1-.6-.7-.6h-.3v1l.1.7a1.2 1.2 0 0 0 .5 0 1 1 0 0 0 .7-.2 2.2 2.2 0 0 0 .3-.7h.3a8.6 8.6 0 0 1-.2 1.3h-3.5v-.3c.6 0 .6 0 .6-.8v-2.2ZM272 105.4h1l-.5-1.3-.4 1.3Zm1 1.4h.1c.3 0 .3 0 .2-.3l-.2-.7H272l-.2.7c0 .3 0 .3.2.4h.2v.2h-1.6v-.2c.3 0 .5-.1.7-.7l1.3-3.5h.5l.4 1.2.9 2.3c.3.7.3.6.7.7v.2h-2.2v-.2Z" class="cls-1"/><path d="M248.9 161.4a1.8 1.8 0 1 1-1.8-1.8 1.8 1.8 0 0 1 1.8 1.8ZM266.8 164.3a1.8 1.8 0 1 1-1.8-1.8 1.8 1.8 0 0 1 1.8 1.8ZM198.2 65.2zM272.4 33.3zM300.8 68.3zM314.6 125.7zM256.7 36.8a1.8 1.8 0 1 1-1.8-1.7 1.8 1.8 0 0 1 1.8 1.7ZM298.7 53.3a1.8 1.8 0 1 1-1.7-1.8 1.8 1.8 0 0 1 1.7 1.8ZM210.2 129a5.4 5.4 0 0 1 1 3.2c0 1.2-.4 2.2-2.6 3.7l-6.4 4.5-1.2-1.6 6.6-4.8c1.2-.7 1.6-1.3 1.6-2.2a3.1 3.1 0 0 0-.6-1.8 2.6 2.6 0 0 0-2.1-1.2c-.7 0-1.4.5-2.7 1.4l-6 4-1.1-1.6 5.7-3.9c1.6-1.1 2.8-1.9 4-1.9a4.7 4.7 0 0 1 3.7 2.3ZM189.8 116.6l12.1-4.2.7 1.8-6.9 8.5 8.7-3.5.7 1.8-12 4.6-.7-1.8 7-8.5-8.9 3.1-.7-1.8zM188 107l12.7-1.9.3 2-12.7 1.9-.3-2zM187.6 91.7l.1-2.2 12.6 5.2v2.1l-13 3.9v-2.2l10.5-2.9-10.2-3.9zM197 66.9c.7-1.4 1.2-1.9 2-1.9a2.2 2.2 0 0 1 1 .3 1.9 1.9 0 0 1 1.1 1.7 5.2 5.2 0 0 1-.9 2.3l-.2.5-3.6-2 .5-1Zm2.2-3.9c-1.8 0-2.6 1-3.8 3.1l-1.5 2.7 11.3 6.2 1-1.8-4.7-2.6.3-.5c.8-1.4 1-1.6 3-1.5l3.7.4 1-2-4.2-.3a6 6 0 0 0-2 0 2.7 2.7 0 0 0-.7.3 3.3 3.3 0 0 0 .2-.7 3.3 3.3 0 0 0-.2-1 3.2 3.2 0 0 0-1.6-1.8 3.8 3.8 0 0 0-1.8-.5ZM213.3 44.9l1.6-1.3 7.8 10.2L221 55l-7.7-10.1zM220.3 39.9l8.3-4.4.8 1.6-3.2 1.7 5.1 9.8-1.8.9-5.2-9.8-3.2 1.7-.8-1.5zM241 31.6l2.2-.6-1.8 8.6 1.4 4.9-1.9.5-1.4-4.8-6.1-6.3 2.1-.7 4.4 4.6 1.1-6.2zM280.1 49.2l6.5-11.1 6.2 3.6-.9 1.5-4.4-2.5-1.8 3 4.1 2.4-.9 1.5-4.1-2.4-2.9 5-1.8-1zM313.1 77.7l4.6-5.5.8 2.2-3.5 3.9 5.1 1.2.7 2.1-7-1.7-5 6-.8-2.2 3.8-4.4-5.6-1.3-.7-2.1 7.6 1.8zM309.4 90.3l12.8-1 .6 7.1-1.8.1-.4-5-3.5.3.3 4.7-1.6.2-.4-4.8-5.8.5-.2-2.1zM316 111.5c-2.4 0-5.4-1.3-5.4-3.8a3.6 3.6 0 0 1 1.5-3 4.8 4.8 0 0 1 2.8-.9c1.3 0 3.6.4 4.8 2a3.2 3.2 0 0 1 .6 2 3.6 3.6 0 0 1-1.4 2.9 4.7 4.7 0 0 1-2.8.8Zm-1-9.7a6.6 6.6 0 0 0-3.9 1.2 5.6 5.6 0 0 0-2.2 4.6c0 4.3 4 6 7 6a6.5 6.5 0 0 0 4-1.1 5.7 5.7 0 0 0 2.2-4.7c0-3.8-3.4-6-7-6ZM305.6 69.5a3.5 3.5 0 0 1-3.4-3.4 5 5 0 0 1 2.6-4 6 6 0 0 1 3.1-1 3.3 3.3 0 0 1 3 1.6 3.7 3.7 0 0 1 .5 2 4.7 4.7 0 0 1-2.5 3.8 6.4 6.4 0 0 1-3.3 1.1Zm2-10.4a7.6 7.6 0 0 0-4 1.2 6.7 6.7 0 0 0-3.3 5.5 5.8 5.8 0 0 0 5.7 5.7 7.7 7.7 0 0 0 4-1.3 6.7 6.7 0 0 0 3.4-5.4 5.7 5.7 0 0 0-1-3 5.6 5.6 0 0 0-4.8-2.7ZM272 44.1a3.5 3.5 0 0 1-3-1.8 4.8 4.8 0 0 1-.5-2.3c0-2.3 1.5-5.5 4.3-5.5 1.6 0 3.5 1.1 3.5 4 0 1.9-1.3 5.6-4.3 5.6Zm.7-11.4c-2.7 0-5 1.8-6 5a7.8 7.8 0 0 0-.3 2 6.5 6.5 0 0 0 .7 3.3 5.7 5.7 0 0 0 5 3 5.5 5.5 0 0 0 2.7-.7 7.7 7.7 0 0 0 3.6-6.6 6.4 6.4 0 0 0-.8-3.1 5.6 5.6 0 0 0-5-3ZM201.6 79.2l1.7.5-1.9 7-12.4-3.4 2.1-7.1 1.7.5-1.6 5.1 3.4.9 1.3-4.6 1.7.4-1.3 4.7 3.9 1.1 1.4-5.1zM204.8 52.4a4.8 4.8 0 0 1 3.6-1.9l.4 1.7a3.9 3.9 0 0 0-2.5 1.3 2.5 2.5 0 0 0-.8 1.6 1.4 1.4 0 0 0 .5 1c1 .9 2.4 0 3.4-.4a7.7 7.7 0 0 1 2.8-.7 3.4 3.4 0 0 1 2.3.8 3.6 3.6 0 0 1 1.3 2.8 4.4 4.4 0 0 1-1.3 3 6.4 6.4 0 0 1-3.8 2l-.5-1.8a5.4 5.4 0 0 0 2.9-1.4 2.5 2.5 0 0 0 .7-1.6 1.7 1.7 0 0 0-.6-1.3 1.7 1.7 0 0 0-1.1-.4 8 8 0 0 0-2.7.8c-1.5.7-3.2 1.2-4.6-.1a3.2 3.2 0 0 1-1.2-2.5 4.5 4.5 0 0 1 1.2-3ZM313.6 126a2.1 2.1 0 0 1-2-1.3 1.9 1.9 0 0 1 0-.7 5.8 5.8 0 0 1 .6-2.2l.2-.5 3.7 1.6-.4 1c-.7 1.6-1.1 2.1-2.1 2.1Zm-7.6-7.6 4.8 2.2-.2.5c-.7 1.5-1 1.8-3 1.8H304l-.9 2h4.3a6 6 0 0 0 2-.2 2 2 0 0 0 .5-.3v.3a3.6 3.6 0 0 0 .2 1.3 3.7 3.7 0 0 0 3.3 2c2 0 2.9-1.2 3.8-3.4l1.2-2.8-11.6-5.2-.8 1.8ZM303.8 140.2a4.7 4.7 0 0 1-3-1.2 5 5 0 0 1-2-3.7 5.6 5.6 0 0 1 1.5-3.3l.8-1 7.4 5.8-.6.7c-1.3 1.7-2.3 2.7-4 2.7Zm-4.6-9.7c-1.3 1.7-2.3 3.1-2.3 5a6.4 6.4 0 0 0 2.6 5 6.5 6.5 0 0 0 4.1 1.6c1.8 0 3.2-.5 5.5-3.3l2-2.5-10-8-1.9 2.2Z" class="cls-2"/><path d="M298 154.9a58.2 58.2 0 0 1-32.5 1.8c.3-4.2 2-8.8 4.7-9.6a51.4 51.4 0 1 0-46.9-8.6 17.4 17.4 0 0 0-7.2 6l-2.7-2-.5.4a33.7 33.7 0 0 0 2.5 2.6 17 17 0 0 0-2.4 8.7v1.5a71.3 71.3 0 1 1 85-.8Zm-41.3 16.8a65.7 65.7 0 0 1-30.6-8.3 10.4 10.4 0 0 1-5.6-9.1 10 10 0 0 1 .7-3.7 65.5 65.5 0 0 0 8.4 6.2 2.3 2.3 0 0 0 1.3.3 2.4 2.4 0 0 0 1-4.6c-1.8-.7-5.4-2.2-9.4-4.3a9.9 9.9 0 0 1 12.2-3l2.7 1.6c8.6 5.2 30.6 18.7 57.3 11.3a54.2 54.2 0 0 1-38 13.6Zm8.4 6a4.8 4.8 0 0 0-4.9 4.9 4.8 4.8 0 0 0 5 4.8 4.6 4.6 0 0 0 1.1-.1c-.6 4-5.3 8.6-11.4 10.7-6.1-2-10.8-6.7-11.5-10.7a4.5 4.5 0 0 0 1.2.1 4.7 4.7 0 0 0 5-4.8 4.8 4.8 0 0 0-4.9-4.9 32.1 32.1 0 0 0 2.2-4.8 57.2 57.2 0 0 0 9.8.9c2.5 0 5-.2 7.4-.4a35 35 0 0 0 1.3 4.3h-.3Zm-34.8-38.6a15.2 15.2 0 0 1 12.6 6.7 48.5 48.5 0 0 1-7.2-2.4 12.2 12.2 0 0 0-15 3.9l-2.8-1.7a15.1 15.1 0 0 1 12.4-6.5Zm20 10a5.6 5.6 0 0 0-1.4 1.7c-1.9-.9-4.2-2-5.8-3a62.1 62.1 0 0 0 7.2 1.4Zm15.6-1a17 17 0 0 0-2.6 8 76.7 76.7 0 0 1-12.5-4.4 5.2 5.2 0 0 1 4.2-2.3 52 52 0 0 0 11-1.2Zm-10.9-.8a49.5 49.5 0 0 1-9.3-.9 17.3 17.3 0 0 0-20-8.8 49.2 49.2 0 1 1 29.3 9.7Zm-24.7 22A15.2 15.2 0 0 1 217 147l2.5 2.2a11.8 11.8 0 0 0-1.2 5c0 4.6 2.3 8.4 6.7 11a57 57 0 0 0 8.3 4 15.4 15.4 0 0 1-3 .3Zm98.2-71.2a73.5 73.5 0 1 0-115 60.6 17.3 17.3 0 0 0 23 11.6 73.6 73.6 0 0 0 8.3 2.2 35.2 35.2 0 0 1-3 6.1l1.4 1.6a2.6 2.6 0 0 1 1.4-.4 2.8 2.8 0 0 1 0 5.5 4 4 0 0 1-3.1-1.8 11.6 11.6 0 0 0-.4 3c0 5.2 5.8 11.2 13.7 13.7 8-2.4 13.8-8.5 13.7-13.8a10 10 0 0 0-.3-2.9 4.2 4.2 0 0 1-3.1 1.8 2.8 2.8 0 1 1 1.4-5l1.5-1.6a36 36 0 0 1-1.8-5.6 54.7 54.7 0 0 0 33.2-16.7 72.8 72.8 0 0 0 29-58.4Z" class="cls-2"/></svg>