<svg xmlns="http://www.w3.org/2000/svg" xml:space="preserve" fill-rule="evenodd" stroke-linejoin="round" stroke-miterlimit="2" clip-rule="evenodd" viewBox="0 0 259 113"><g fill-rule="nonzero"><path fill="#40b5ff" d="M21.24 94.47c8.25-2.83 22.83-3.39 23.28-12.66.36-7.43-11.3-9.06-17.85-12.43a63.4 63.4 0 0 1-21 3.17H0v16.27h6.55c5.95 0 10.51 2.33 14.69 5.65Z"/><path fill="#ff7cff" d="M26.67 69.38c15.09-5.15 46.1-14.69 46.1-14.69S41.52 46.8 26 42.71a35.33 35.33 0 0 1-19.45 5.65H0v16.28h6.55c7-.13 13.92 1.5 20.12 4.74Z"/><path fill="#ffd13a" d="M26 42.71c6.64-4.13 18.83-7.27 18.08-15.36C43.32 19.1 29.65 19 19 17.18c-4.06 4-7.93 7.23-12.43 7.23H0v16h5.42A80 80 0 0 1 26 42.71Z"/><path fill="#ffb700" d="M19 17.18C26.31 10 45 0 45 0H0v16.05h6.55c4.17.01 8.34.39 12.45 1.13Z"/><path fill="#f20c51" d="M82.72 40.45c.84-2.78 1.3-5.67 1.35-8.58 0-7.57-2-14-5.65-19-15.77 0-34.35 0-34.35 14.47 0 13.11 20.23 13.11 38.65 13.11Z"/><path fill="#ff7c00" d="M19 17.18C29.65 19 37 23.05 44.07 27.35c8.66-7.69 18.58-14.47 34.35-14.47C72.23 4.5 60.88 0 44.88 0 33.85 0 26.31 10 19 17.18Z"/><path fill="#5324b3" d="M85.43 69.38c-18.1 0-40.3 0-40.91 12.43-.61 12 20.64 14.08 39.1 14.08a34.6 34.6 0 0 0 3.62-16.11c0-3.55-.61-7.06-1.81-10.4Z"/><path fill="#9b54e6" d="M44.52 81.81c10.62-6.42 22.81-12.43 40.91-12.43a28 28 0 0 0-12.88-14.69c-23.51 0-30.79 9.54-45.88 14.69 6.55 3.37 11.91 7.98 17.85 12.43Z"/><path fill="#ff369c" d="M26 42.71c15.53 4.09 22.69 12 46.56 12a26.22 26.22 0 0 0 10.16-14.26c-18.42 0-28.21-6.78-38.65-13.1C38 32.75 32.63 38.58 26 42.71Z"/><path fill="#17d7e6" d="M21.31 94.47A41.57 41.57 0 0 1 7.71 97H0v16h47.91s-17.63-11.37-26.62-18.53h.02Z"/><path fill="#5971f2" d="M21.24 94.47c9 7.16 15.42 18.53 26.45 18.53 18.19 0 30.35-6.4 35.93-17.18-18.46 0-29.45-6.78-39.1-14-7.95 4.78-15.03 9.82-23.28 12.65Z"/><path fill="#002147" d="M114.19 9.94h7.08c5.12 0 7.55 1.82 7.55 5.11 0 1.95-.85 3.34-3.39 4.41 3.25.86 3.85 2.9 3.85 4.71 0 3.61-2.35 5.29-7.69 5.29h-7.4V9.94Zm7.7 8.07c1.61 0 3.12-.73 3.12-2.44S123.59 13 121.62 13h-3.5v5l3.77.01Zm-.22 8.4c2.37 0 3.61-1 3.61-2.63s-1.46-2.64-3.39-2.64h-3.77v5.27h3.55ZM133.67 9.94h13.41v3.32h-9.44V18h8.2v3.25h-8.24v4.85h9.62v3.35h-13.55V9.94ZM168.27 9.94v19.52h-3.56L155.44 16v13.46h-3.93V9.94h3.9l8.91 12.92V9.94h3.95ZM190 9.94v19.52h-3.55L177.17 16v13.46h-3.93V9.94h3.9l8.92 12.92V9.94H190ZM195 9.94h13.41v3.32h-9.44V18h8.2v3.25h-8.22v4.85h9.61v3.35H195V9.94ZM211.7 9.94h15.63v3.51h-5.77v16h-4v-16h-5.9l.04-3.51ZM229.87 9.94h15.63v3.51h-5.77v16h-4v-16h-5.9l.04-3.51ZM114.19 38.94h3.93v19.52h-3.93zM139.87 38.94v19.52h-3.55L127.05 45v13.46h-3.93V38.94H127l8.91 12.92V38.94h3.96ZM144 52.89h4c.39 1.77 2 2.75 4.12 2.75s3.94-.8 3.94-2.46c0-1.47-1.43-2.09-3.3-2.47l-3.33-.71c-2.94-.56-4.81-2.35-4.85-5.34 0-3.68 3.27-6 7.51-6 5 0 7.74 2.62 7.79 5.92h-4c-.21-2-1.72-2.78-3.76-2.78s-3.45 1-3.45 2.39c0 1.13.61 1.79 2.69 2.24l3.35.69c4.77.92 5.32 4 5.32 6 0 3.14-3.17 5.57-7.89 5.57-3.82.04-7.72-1.89-8.14-5.8ZM162.45 38.94h15.63v3.51h-5.77v16h-3.95v-16h-5.91v-3.51ZM181.38 38.94h3.93v19.52h-3.93zM188.63 38.94h15.63v3.51h-5.77v16h-4v-16h-5.9l.04-3.51ZM215.37 58.73c-5.72 0-7.81-3-7.81-7.84v-12h4v12.29c0 2.92 1.54 4.2 3.8 4.2s3.83-1.25 3.83-4.2V38.94h4V51c-.01 4.76-2.14 7.73-7.82 7.73ZM226.05 38.94h15.63v3.51h-5.77v16h-4v-16h-5.9l.04-3.51ZM245 38.94h13.41v3.32h-9.44V47h8.19v3.25h-8.22v4.85h9.62v3.35H245V38.94ZM122 70.08v1.38h-6v4.06h5.42v1.36H116v5.49h-1.61V70.08H122ZM126 76.25c0-4 2.07-6.34 5.33-6.34 3.26 0 5.31 2.31 5.31 6.34 0 4.03-2 6.29-5.31 6.29-3.31 0-5.33-2.27-5.33-6.29Zm8.91 0c0-3.43-1.32-5-3.58-5s-3.6 1.57-3.6 5c0 3.43 1.35 4.9 3.6 4.9s3.58-1.5 3.58-4.88v-.02ZM148.58 82.37l-2.25-5.29H143v5.29h-1.57V70.08h4.76c2.66 0 4 1.27 4 3.36a3.38 3.38 0 0 1-2.38 3.36l2.41 5.57h-1.64Zm0-8.84c0-1.44-.95-2.16-2.52-2.16H143v4.41h2.68c1.87 0 2.92-.78 2.92-2.25h-.02ZM165.17 70.08H167l4.44 12.29h-1.6L168.58 79h-5l-1.22 3.36h-1.59l4.4-12.28Zm3 7.48-2.1-5.94-2.07 5.94h4.17ZM176 70.08h4.16c2.63 0 4.55 1.35 4.55 3.89s-1.76 3.86-4.34 3.86h-2.75v4.54H176V70.08Zm4.34 6.42.26.01a2.6 2.6 0 0 0 2.58-2.58v-.06c0-1.63-1.19-2.48-2.92-2.48h-2.66v5.11h2.74ZM189.09 70.08h4.16c2.63 0 4.55 1.35 4.55 3.89s-1.76 3.86-4.34 3.86h-2.76v4.54h-1.61V70.08Zm4.33 6.42.27.01a2.6 2.6 0 0 0 2.58-2.58v-.06c0-1.63-1.2-2.48-2.92-2.48h-2.65v5.11h2.72ZM203.8 70.08V81h5.81v1.41h-7.42V70.08h1.61ZM214.28 70.08h1.58v12.29h-1.58zM221.37 70.08h7.75v1.39H223v4h5.55v1.38H223V81h6.34v1.4h-7.92l-.05-12.32ZM237.17 70.1c4.51.06 6.39 2.17 6.39 6.05 0 4.08-2.09 6.22-6.56 6.22h-2.69V70.08l2.86.02ZM235.92 81H237c3.05 0 4.9-1.29 4.9-4.84s-1.78-4.75-4.83-4.75h-1.15V81ZM117.18 90.5c4.51.06 6.39 2.17 6.39 6 0 4.08-2.09 6.22-6.55 6.22h-2.69V90.48l2.85.02Zm-1.24 10.92H117c3 0 4.89-1.29 4.89-4.84s-1.78-4.75-4.82-4.75h-1.15l.02 9.59ZM131.44 90.48h1.77l4.45 12.29h-1.61l-1.21-3.36h-5l-1.21 3.36H127l4.44-12.29Zm3 7.48L132.32 92l-2.1 6 4.22-.04ZM139.52 90.48h9.3v1.45h-3.75v10.84h-1.58V91.93h-4l.03-1.45ZM155.14 90.48h1.78l4.44 12.29h-1.6l-1.21-3.36h-5l-1.22 3.36h-1.63l4.44-12.29Zm3 7.48L156 92l-2.07 6 4.21-.04ZM171.73 99.51h1.65a3 3 0 0 0 3.16 2.12c1.72 0 3-.76 3-2s-.77-1.75-2.13-2.07L175 97c-1.81-.4-2.89-1.4-2.91-3.08 0-2.13 1.83-3.58 4.39-3.58 2.94 0 4.48 1.7 4.5 3.56h-1.62c-.17-1.66-1.42-2.23-2.88-2.23s-2.73.72-2.73 2.1c0 .89.5 1.4 2.1 1.79l2.34.56a3.34 3.34 0 0 1 3 3.49c0 1.86-1.71 3.34-4.63 3.34-2.34-.01-4.51-1.18-4.83-3.44ZM195 94.27h-1.67a3.01 3.01 0 0 0-3-2.59c-2.25 0-3.45 1.52-3.45 4.92s1.2 5 3.45 5a3.01 3.01 0 0 0 3-2.66H195a4.4 4.4 0 0 1-4.64 4c-3.32 0-5.23-2.34-5.23-6.35s1.9-6.28 5.23-6.28a4.52 4.52 0 0 1 4.64 3.96ZM199.86 90.48h1.57v12.29h-1.57zM207 90.48h7.75v1.39h-6.16v4h5.55v1.38h-5.56v4.09h6.34v1.4H207V90.48ZM229.46 90.48v12.29h-1.41l-6.59-9.69v9.69h-1.57V90.48h1.5l6.49 9.56v-9.56h1.58ZM244.14 94.27h-1.67a3.01 3.01 0 0 0-3-2.59c-2.24 0-3.44 1.52-3.44 4.92s1.2 5 3.44 5a3.01 3.01 0 0 0 3-2.66h1.67a4.39 4.39 0 0 1-4.64 4c-3.31 0-5.22-2.34-5.22-6.35s1.89-6.28 5.22-6.28a4.52 4.52 0 0 1 4.64 3.96ZM249 90.48h7.76v1.39h-6.17v4h5.55v1.38h-5.55v4.09h6.34v1.4H249V90.48Z"/></g></svg>