<svg xmlns="http://www.w3.org/2000/svg" xmlns:xlink="http://www.w3.org/1999/xlink" version="1.1" id="Layer_1" x="0px" y="0px" width="100px" height="100px" viewBox="0 0 100 100" enable-background="new 0 0 100 100" xml:space="preserve">
<path fill="#ccc" d="M41.347,91.649c0.237-2.745,2.662-4.77,5.404-4.531l0,0c2.734,0.235,4.771,2.65,4.524,5.393l0,0  c-0.237,2.743-2.651,4.77-5.395,4.532l0,0l0,0l0,0c-0.222-0.017-0.438-0.056-0.653-0.103l0,0  C42.826,96.41,41.128,94.17,41.347,91.649z M30.814,93.204c0,0,0,0-0.002,0.01l0,0c-2.522-1.1-3.676-4.038-2.577-6.559l0,0  c1.092-2.535,4.031-3.689,6.553-2.589l0,0c2.532,1.103,3.675,4.037,2.586,6.562l0,0c-0.973,2.223-3.359,3.385-5.645,2.88l0,0  C31.427,93.441,31.111,93.343,30.814,93.204z M55.38,92.197c-0.659-2.674,0.973-5.376,3.646-6.025l0,0  c2.674-0.658,5.367,0.971,6.024,3.646l0,0c0.659,2.676-0.973,5.377-3.645,6.025l0,0c0,0,0,0-0.003,0.011l0,0  c-0.769,0.188-1.535,0.183-2.259,0.023l0,0C57.348,95.479,55.841,94.102,55.38,92.197z M17.738,84.757  c-2.039-1.854-2.184-4.999-0.331-7.038l0,0c1.844-2.04,5.001-2.193,7.04-0.34l0,0c2.028,1.852,2.181,5.009,0.328,7.046l0,0  c-1.244,1.365-3.078,1.882-4.768,1.508l0,0C19.188,85.751,18.403,85.363,17.738,84.757z M68.826,88.204  c-1.482-2.324-0.804-5.4,1.512-6.886l0,0c2.314-1.486,5.402-0.815,6.886,1.51l0,0c1.485,2.314,0.804,5.401-1.51,6.887l0,0  c0,0,0,0,0.002-0.011l0,0c-1.159,0.749-2.514,0.951-3.764,0.676l0,0C70.711,90.105,69.575,89.362,68.826,88.204z M8.084,72.546  c-1.332-2.412-0.457-5.446,1.947-6.778l0,0c2.404-1.333,5.437-0.458,6.768,1.954l0,0c1.333,2.405,0.468,5.439-1.946,6.771l0,0  c-1.108,0.615-2.339,0.764-3.482,0.512l0,0C10.023,74.706,8.799,73.853,8.084,72.546z M80.28,80.072  c-2.163-1.707-2.537-4.841-0.839-7.007l0,0c1.704-2.152,4.838-2.524,7.003-0.828l0,0c2.163,1.705,2.526,4.839,0.83,7.003l0,0  c-1.224,1.554-3.187,2.186-4.99,1.775l0,0C81.571,80.859,80.88,80.553,80.28,80.072z M2.879,57.858L2.879,57.858L2.879,57.858  c-0.476-2.716,1.333-5.297,4.05-5.771l0,0c2.707-0.478,5.287,1.331,5.765,4.038l0,0c0.488,2.709-1.323,5.3-4.04,5.774l0,0  c-0.662,0.12-1.312,0.099-1.937-0.039l0,0C4.802,61.438,3.246,59.906,2.879,57.858z M88.399,68.624  c-2.599-0.893-3.988-3.738-3.096-6.338l0.01,0.003l0,0l0,0c0.009-0.039,0.018-0.078,0.038-0.124l0,0  c0.881-2.602,3.71-4.005,6.312-3.124l0,0c2.612,0.875,4.016,3.704,3.132,6.315l0,0l0,0l0,0c-0.009,0.039-0.025,0.065-0.031,0.094  l0,0c-0.017,0.028-0.022,0.059-0.026,0.077l0,0c-0.835,2.428-3.347,3.788-5.787,3.248l0,0C88.766,68.734,88.58,68.684,88.399,68.624  z M2.782,42.251L2.782,42.251L2.782,42.251c0.446-2.718,3.014-4.558,5.731-4.112l0,0c2.708,0.444,4.55,3.002,4.113,5.723l0,0  c-0.447,2.718-3.014,4.557-5.732,4.111l0,0c-0.09-0.01-0.178-0.029-0.266-0.049l0,0C4.061,47.356,2.357,44.87,2.782,42.251z   M87.312,50.042c-0.027-2.751,2.19-5.005,4.939-5.023l0,0c2.75-0.027,5.005,2.191,5.023,4.94l0,0  c0.027,2.75-2.191,5.005-4.942,5.032l0,0c-0.379-0.001-0.758-0.043-1.12-0.123l0,0C88.996,54.377,87.33,52.411,87.312,50.042z   M9.845,34.245c-2.426-1.304-3.325-4.329-2.011-6.752l0,0c1.313-2.424,4.339-3.323,6.752-2.012l0,0  c2.424,1.314,3.323,4.339,2.011,6.753l0,0c-1.087,2.003-3.339,2.97-5.458,2.502l0,0C10.7,34.639,10.263,34.48,9.845,34.245z   M85.157,37.953L85.157,37.953c-0.923-2.589,0.434-5.445,3.024-6.368l0,0c2.59-0.923,5.444,0.435,6.368,3.024l0,0  c0.924,2.59-0.435,5.444-3.024,6.368l0,0c-0.911,0.321-1.863,0.367-2.741,0.172l0,0C87.162,40.792,85.76,39.632,85.157,37.953z   M17.122,22.252c-1.842-2.046-1.699-5.198,0.336-7.043l0,0c2.039-1.854,5.189-1.701,7.043,0.336l0,0  c1.854,2.038,1.701,5.189-0.335,7.033l0,0c-1.244,1.139-2.906,1.52-4.429,1.184l0,0C18.762,23.546,17.85,23.037,17.122,22.252z   M79.188,27.192c-1.715-2.161-1.351-5.296,0.799-7.003l0,0c2.161-1.714,5.295-1.35,7.003,0.799l0,0  c1.715,2.161,1.349,5.296-0.799,7.003l0,0c-1.23,0.978-2.771,1.272-4.176,0.962l0,0C80.93,28.713,79.925,28.123,79.188,27.192z   M27.963,13.319c-1.091-2.524,0.078-5.451,2.602-6.543l0,0c2.525-1.091,5.463,0.07,6.553,2.605l0,0  c1.091,2.524-0.079,5.46-2.604,6.553l0,0c-1.004,0.423-2.059,0.508-3.044,0.29l0,0C29.956,15.89,28.617,14.857,27.963,13.319z   M70.057,18.918c-2.313-1.484-2.983-4.571-1.5-6.886l0,0c1.494-2.312,4.571-2.984,6.894-1.488l0,0  c2.313,1.484,2.983,4.571,1.489,6.884l0,0c-1.155,1.802-3.289,2.611-5.262,2.176l0,0C71.11,19.479,70.565,19.256,70.057,18.918z   M41.096,8.386c-0.214-2.741,1.831-5.136,4.583-5.358l0,0l0,0l0,0c2.741-0.213,5.136,1.831,5.357,4.583l0,0  c0.214,2.741-1.831,5.136-4.573,5.36l0,0c-0.509,0.031-1.002-0.006-1.471-0.11l0,0C42.903,12.399,41.277,10.627,41.096,8.386z   M58.739,14.012c-2.67-0.671-4.283-3.383-3.611-6.051l0,0c0.671-2.668,3.385-4.291,6.05-3.61l0,0c0,0,0,0,0.01,0.002l0,0  c2.667,0.681,4.28,3.394,3.6,6.059l0,0c-0.661,2.619-3.288,4.22-5.904,3.642l0,0C58.834,14.043,58.788,14.023,58.739,14.012z"/>
<path fill="#ccc" d="M48.692,85.356c-1.934-0.063-3.439-1.683-3.374-3.606l0,0c0.063-1.925,1.683-3.429,3.607-3.364l0,0  c1.924,0.063,3.438,1.672,3.363,3.598l0,0c-0.058,1.783-1.433,3.205-3.156,3.363l0,0C48.984,85.36,48.833,85.363,48.692,85.356z   M55.438,81.604c-0.532-1.86,0.536-3.784,2.394-4.317l0,0c1.852-0.521,3.787,0.546,4.31,2.405l0,0  c0.53,1.85-0.547,3.777-2.396,4.308l0,0l0,0l0,0c-0.216,0.061-0.424,0.1-0.642,0.12l0,0C57.47,84.27,55.899,83.238,55.438,81.604z   M37.756,83.268c-1.818-0.656-2.764-2.647-2.117-4.454l0,0c0.647-1.817,2.647-2.775,4.455-2.117l0,0  c1.816,0.646,2.763,2.639,2.117,4.455l0,0c-0.471,1.319-1.658,2.182-2.972,2.303l0,0C38.75,83.498,38.253,83.442,37.756,83.268z   M65.021,78.363c-1.082-1.607-0.648-3.777,0.951-4.847l0,0c1.597-1.071,3.767-0.639,4.837,0.96l0,0  c1.07,1.6,0.647,3.769-0.951,4.838l0,0l0,0l0,0c-0.5,0.338-1.058,0.519-1.624,0.571l0,0C67.009,79.998,65.755,79.461,65.021,78.363z   M27.969,77.961L27.969,77.961L27.969,77.961c-1.533-1.165-1.834-3.355-0.66-4.891l0,0c1.165-1.532,3.358-1.824,4.891-0.66l0,0  c1.533,1.176,1.825,3.357,0.66,4.891l0,0c-0.618,0.812-1.52,1.274-2.456,1.36l0,0C29.557,78.739,28.692,78.517,27.969,77.961z   M73.132,72.325c-1.514-1.187-1.785-3.379-0.599-4.895l0,0c1.174-1.524,3.369-1.797,4.895-0.61l0,0  c1.515,1.188,1.784,3.37,0.6,4.896l0,0l0,0l0,0c-0.61,0.79-1.503,1.243-2.428,1.329l0,0C74.743,73.123,73.868,72.892,73.132,72.325z   M20.26,69.913c-1.099-1.588-0.707-3.762,0.878-4.861l0,0c1.577-1.1,3.752-0.707,4.852,0.88l0,0c1.099,1.575,0.716,3.751-0.87,4.85  l0,0c-0.509,0.357-1.083,0.562-1.671,0.615l0,0C22.245,71.508,21.011,70.977,20.26,69.913z M78.949,64.039  c-1.816-0.646-2.764-2.638-2.117-4.455l0,0c0.019-0.03,0.025-0.054,0.034-0.083l0,0c0.635-1.817,2.629-2.763,4.444-2.126l0,0  c1.827,0.646,2.772,2.638,2.126,4.454l0,0c0,0,0,0,0.001,0.01l0,0c-0.008,0.032-0.016,0.062-0.032,0.094l0,0  c-0.471,1.319-1.658,2.181-2.973,2.303l0,0C79.945,64.28,79.438,64.216,78.949,64.039z M15.403,59.885  c-0.562-1.846,0.485-3.791,2.321-4.352l0,0c1.847-0.561,3.789,0.477,4.35,2.322l0,0c0.562,1.846-0.475,3.791-2.321,4.351l0,0  c-0.224,0.071-0.461,0.113-0.701,0.136l0,0C17.44,62.488,15.892,61.497,15.403,59.885z M81.888,54.27  c-1.922-0.046-3.454-1.641-3.411-3.572l0,0c0.046-1.923,1.643-3.445,3.563-3.411l0,0c1.932,0.042,3.454,1.641,3.41,3.563l0,0  c0,0,0,0,0.01-0.001l0,0c-0.046,1.792-1.43,3.244-3.172,3.405l0,0C82.158,54.266,82.027,54.267,81.888,54.27z M17.295,52.391  c-1.931-0.034-3.454-1.642-3.41-3.563l0,0c0.045-1.922,1.641-3.455,3.575-3.402l0,0c1.92,0.035,3.443,1.633,3.4,3.564l0,0  c-0.037,1.792-1.421,3.233-3.163,3.393l0,0C17.566,52.396,17.427,52.398,17.295,52.391z M77.251,41.832L77.251,41.832  c-0.561-1.836,0.475-3.79,2.312-4.35l0,0c1.846-0.561,3.798,0.475,4.36,2.321l0,0c0.56,1.836-0.477,3.79-2.321,4.35l0,0  c-0.236,0.072-0.463,0.113-0.701,0.136l0,0C79.288,44.436,77.74,43.444,77.251,41.832z M18.036,42.31  c-1.816-0.646-2.764-2.648-2.118-4.464l0,0l0,0l0,0c0.647-1.808,2.65-2.754,4.457-2.107l0,0c1.817,0.646,2.763,2.639,2.117,4.456  l0,0c-0.472,1.318-1.658,2.181-2.962,2.3l0,0C19.032,42.54,18.524,42.486,18.036,42.31z M73.326,33.767L73.326,33.767  c-1.109-1.585-0.716-3.75,0.869-4.86l0,0c1.576-1.098,3.752-0.706,4.85,0.87l0,0c1.11,1.586,0.718,3.761-0.858,4.86l0,0  c-0.52,0.358-1.094,0.552-1.682,0.605l0,0C75.299,35.353,74.067,34.833,73.326,33.767z M21.897,32.958  c-1.525-1.186-1.797-3.38-0.622-4.904l0,0c1.187-1.515,3.381-1.786,4.905-0.61l0,0c1.515,1.186,1.796,3.369,0.61,4.894l0,0  c-0.619,0.8-1.511,1.253-2.438,1.338l0,0C23.506,33.754,22.622,33.523,21.897,32.958z M67.107,27.289  c-1.532-1.165-1.824-3.357-0.66-4.89l0,0c1.165-1.534,3.358-1.825,4.891-0.661l0,0c1.534,1.165,1.825,3.358,0.66,4.891l0,0  c-0.617,0.811-1.521,1.274-2.456,1.36l0,0C68.706,28.065,67.831,27.845,67.107,27.289z M28.494,25.292  c-1.072-1.599-0.649-3.776,0.949-4.848l0,0c1.6-1.071,3.767-0.647,4.838,0.952l0,0c1.081,1.598,0.657,3.766-0.941,4.836l0,0  c-0.511,0.338-1.065,0.53-1.624,0.581l0,0C30.481,26.927,29.237,26.389,28.494,25.292z M59.204,23.023L59.204,23.023  c-1.815-0.647-2.763-2.638-2.116-4.455l0,0c0.638-1.816,2.64-2.763,4.456-2.116l0,0l0,0l0,0c1.816,0.646,2.763,2.638,2.116,4.455  l0,0c-0.471,1.319-1.658,2.181-2.972,2.302l0,0C60.199,23.253,59.693,23.199,59.204,23.023z M37.151,20.058  c-0.531-1.849,0.547-3.775,2.395-4.317l0,0c1.85-0.531,3.786,0.547,4.317,2.396l0,0c0.532,1.849-0.546,3.786-2.395,4.316l0,0  c-0.215,0.061-0.433,0.101-0.642,0.12l0,0C39.193,22.722,37.624,21.701,37.151,20.058z M50.374,21.344  c-1.923-0.064-3.437-1.673-3.373-3.597l0,0c0.064-1.924,1.673-3.437,3.606-3.375l0,0c1.924,0.065,3.427,1.674,3.363,3.598l0,0  c-0.058,1.783-1.434,3.204-3.156,3.363l0,0C50.666,21.348,50.525,21.35,50.374,21.344z"/>
<path fill="#ccc" d="M37.924,73.309L37.924,73.309L37.924,73.309c-1.423-0.713-1.998-2.449-1.286-3.87l0,0c0.715-1.433,2.448-1.998,3.87-1.287  l0,0c1.423,0.712,1.998,2.447,1.286,3.871l0,0c-0.649,1.291-2.126,1.879-3.457,1.449l0,0C38.201,73.428,38.065,73.374,37.924,73.309  z M45.7,73.048c0.079-1.596,1.427-2.824,3.024-2.744l0,0c1.596,0.078,2.82,1.435,2.734,3.021l0,0  c-0.077,1.596-1.426,2.823-3.022,2.745l0,0l0,0l0,0c-0.259-0.015-0.507-0.063-0.737-0.137l0,0  C46.488,75.542,45.637,74.376,45.7,73.048z M29.419,66.553L29.419,66.553L29.419,66.553c-1.025-1.222-0.856-3.032,0.365-4.057l0,0  c1.222-1.025,3.045-0.864,4.058,0.365l0,0c1.025,1.221,0.862,3.044-0.365,4.057l0,0c-0.781,0.662-1.816,0.824-2.734,0.528l0,0  C30.247,67.287,29.784,66.995,29.419,66.553z M55.455,72.686c-0.585-1.485,0.155-3.152,1.639-3.728l0,0  c1.481-0.577,3.16,0.157,3.737,1.64l0,0c0.576,1.483-0.167,3.16-1.649,3.736l0,0c-0.638,0.25-1.319,0.253-1.925,0.059l0,0  C56.457,74.134,55.78,73.531,55.455,72.686z M24.315,56.951c-0.439-1.53,0.451-3.128,1.981-3.565l0,0  c1.53-0.441,3.131,0.44,3.571,1.972l0,0c0.438,1.529-0.451,3.127-1.981,3.566l0,0c-0.572,0.17-1.152,0.146-1.675-0.022l0,0  C25.33,58.616,24.593,57.913,24.315,56.951z M64.194,68.368c-1.133-1.105-1.156-2.916-0.07-4.056l0,0  c0.027-0.021,0.044-0.047,0.072-0.068l0,0c1.108-1.143,2.932-1.173,4.075-0.064l0,0c1.142,1.107,1.165,2.929,0.076,4.067l0,0  c-0.027,0.022-0.047,0.056-0.076,0.078l0,0c-0.786,0.81-1.937,1.047-2.947,0.721l0,0C64.911,68.913,64.527,68.688,64.194,68.368z   M23.534,46.108L23.534,46.108L23.534,46.108c0.216-1.582,1.667-2.685,3.248-2.469l0,0c1.574,0.213,2.674,1.672,2.461,3.246l0,0  c-0.216,1.583-1.667,2.686-3.249,2.469l0,0c-0.165-0.022-0.337-0.057-0.502-0.11l0,0C24.188,48.824,23.334,47.514,23.534,46.108z   M70.419,60.757c-1.5-0.534-2.273-2.192-1.742-3.684l0.012-0.007c0.535-1.499,2.185-2.275,3.681-1.731l0,0  c1.5,0.533,2.283,2.194,1.739,3.692l0,0c0,0,0,0,0.003-0.01l0,0c-0.525,1.473-2.126,2.255-3.595,1.781l0,0  C70.479,60.788,70.451,60.777,70.419,60.757z M28.148,39.843c-1.348-0.85-1.756-2.633-0.906-3.981l0,0  c0.85-1.348,2.625-1.759,3.981-0.906l0,0c1.348,0.85,1.749,2.622,0.906,3.981l-0.01-0.003c-0.711,1.14-2.098,1.605-3.319,1.211l0,0  C28.581,40.074,28.36,39.972,28.148,39.843z M69.817,48.664c-0.116-1.588,1.078-2.967,2.667-3.083l0,0  c1.59-0.126,2.969,1.069,3.084,2.657l0,0c0.126,1.591-1.068,2.97-2.659,3.095l0,0c-0.384,0.028-0.754-0.02-1.094-0.129l0,0  C70.732,50.854,69.915,49.871,69.817,48.664z M34.042,32.063c-0.88-1.327-0.525-3.118,0.802-3.998l0,0  c1.327-0.879,3.119-0.524,3.998,0.802l0,0c0.889,1.331,0.525,3.119-0.802,3.999l0,0c-0.764,0.514-1.674,0.605-2.483,0.345l0,0  C34.959,33.019,34.416,32.63,34.042,32.063z M67.461,40.506c-0.756-1.399-0.221-3.152,1.184-3.895l0,0  c1.409-0.752,3.153-0.221,3.905,1.188l0,0c0.743,1.405,0.212,3.149-1.188,3.904l0,0c-0.719,0.376-1.526,0.429-2.242,0.199l0,0  C68.431,41.68,67.825,41.201,67.461,40.506z M42.607,27.406c-0.253-1.571,0.812-3.052,2.386-3.315l0,0  c1.571-0.253,3.052,0.812,3.306,2.384l0,0c0.263,1.574-0.802,3.056-2.386,3.315l0.009,0.003c-0.469,0.072-0.924,0.037-1.346-0.1l0,0  C43.578,29.36,42.789,28.508,42.607,27.406z M62.003,33.983c-1.251-0.991-1.458-2.801-0.476-4.055l0,0  c0.989-1.252,2.81-1.456,4.051-0.468l0,0c1.252,0.991,1.459,2.802,0.478,4.055l0,0c-0.77,0.969-2.034,1.311-3.154,0.95l0,0  C62.59,34.364,62.275,34.203,62.003,33.983z M52.331,26.669c0.406-1.542,1.979-2.463,3.524-2.066l0,0l0,0l0,0  c1.541,0.405,2.462,1.979,2.064,3.524l0,0c-0.404,1.542-1.979,2.463-3.52,2.058l0,0c-0.058-0.008-0.113-0.026-0.159-0.041l0,0  C52.791,29.676,51.943,28.155,52.331,26.669z"/>
</svg>